<?xml version="1.0" encoding="UTF-8" standalone="no"?>
<!-- Created with Inkscape (http://www.inkscape.org/) -->

<svg
   width="127.99999"
   height="127.99999"
   viewBox="0 0 33.866664 33.866664"
   version="1.1"
   id="svg1848"
   xmlns="http://www.w3.org/2000/svg"
   xmlns:svg="http://www.w3.org/2000/svg">
  <defs
     id="defs1845" />
  <g
     id="layer1">
    <ellipse
       style="fill:#00ff66;stroke-width:0.0630945"
       cx="16.972834"
       cy="16.970484"
       id="circle2-7"
       rx="15.889522"
       ry="16.419119" />
    <circle
       style="fill:#e580ff;stroke-width:0.0565028"
       cx="16.965315"
       cy="17.634348"
       r="14.46476"
       id="circle2" />
    <path
       style="fill:#5d536c;stroke-width:0.0565028"
       d="m 29.054295,15.290659 c 0,3.442839 -1.435176,6.550277 -3.740158,8.756775 -0.763412,0.731204 -1.62271,1.363021 -2.55676,1.875502 -1.728087,0.948911 -3.713488,1.488628 -5.823987,1.488628 -2.110555,0 -4.094883,-0.539264 -5.823026,-1.488175 C 10.831804,25.771 10.56025,25.607762 10.296042,25.43413 9.6727016,25.026008 9.0893639,24.560932 8.553095,24.047376 6.2481128,21.841332 4.812372,18.733442 4.812372,15.290603 c 0,-6.694245 5.426772,-12.1210164 12.121018,-12.1210164 6.694245,0 12.120905,5.4268281 12.120905,12.1210724 z"
       id="path4" />
    <path
       style="fill:#282942;stroke-width:0.0565028"
       d="m 26.966057,28.084401 c -0.910997,0.872632 -1.936525,1.626552 -3.05116,2.238195 -2.062245,1.132376 -4.431529,1.776511 -6.950148,1.776511 -2.51862,0 -4.886716,-0.643513 -6.948961,-1.775946 -1.1146914,-0.611078 -2.1402199,-1.365563 -3.0517827,-2.238816 0.9251795,-2.348603 3.1751857,-4.030074 5.8295817,-4.124547 0.07791,-0.0035 0.157022,-0.0053 0.236182,-0.0053 h 7.870582 c 0.0791,0 0.158208,0.0018 0.236182,0.0053 2.654397,0.09454 4.9044,1.776001 5.829524,4.124603 z"
       id="path14" />
    <path
       style="fill:#d863bb;stroke-width:0.0565028"
       d="m 16.964749,28.518909 c 0,0 10.017524,-7.272384 9.657544,-7.926971 -0.537739,-0.978237 -1.336238,-1.645593 -2.124906,-2.098407 -1.323977,-0.759739 -2.622361,-0.913879 -2.622361,-0.913879 l -7.974094,6.767869 z"
       id="path16" />
    <path
       style="fill:#282942;stroke-width:0.0565028"
       d="m 16.964749,28.518909 c 0,0 10.017524,-7.272384 9.657544,-7.926971 -0.537739,-0.978237 -1.336238,-1.645593 -2.124906,-2.098407 0.806354,0.892295 1.580783,2.249665 0.389418,3.440466 -0.19245,0.192448 -0.404223,0.322801 -0.629782,0.401226 -0.787595,0.27387 -1.52027,0.685156 -2.124003,1.2603 z"
       id="path18" />
    <path
       style="fill:#d863bb;stroke-width:0.0565028"
       d="m 16.964749,28.518909 c 0,0 -10.0175257,-7.272384 -9.6575448,-7.926971 0.5377389,-0.978237 1.3362388,-1.645593 2.1249071,-2.098407 1.3239777,-0.759739 2.6223607,-0.913879 2.6223607,-0.913879 z"
       id="path20" />
    <g
       id="g28"
       style="fill:#ffffff"
       transform="matrix(0.05650297,0,0,0.05650297,2.500554,3.1695866)">
	<path
   style="fill:#ffffff"
   d="m 402.659,149.703 -48.834,28.801 v 58.586 c 0,13.485 10.932,24.417 24.417,24.417 v 0 c 13.485,0 24.417,-10.932 24.417,-24.417 z"
   id="path22" />

	<path
   style="fill:#ffffff"
   d="m 109.318,149.703 48.834,28.801 v 58.586 c 0,13.485 -10.932,24.417 -24.417,24.417 v 0 c -13.485,0 -24.417,-10.932 -24.417,-24.417 z"
   id="path24" />

	<path
   style="fill:#ffffff"
   d="m 310.221,308.199 v 58.253 c 0,29.949 -24.278,54.227 -54.227,54.227 v 0 c -29.949,0 -54.227,-24.278 -54.227,-54.227 v -58.253 z"
   id="path26" />

</g>
    <path
       style="fill:#ffffff;stroke-width:0.0565028"
       d="m 23.786804,11.365512 v 5.784717 c 0,1.883978 -0.763411,3.589633 -1.997322,4.823546 -1.235722,1.23572 -2.940755,1.99851 -4.824733,1.99851 -3.767901,0 -6.822055,-3.054156 -6.822055,-6.822056 v -5.784717 c 0,-0.311163 0.02068,-0.618143 0.06142,-0.918061 0.125154,-0.9334282 0.439819,-1.8066249 0.903877,-2.5806028 1.190856,-1.9908256 10.523283,-1.9908256 11.713518,0 0.464059,0.7740343 0.778725,1.647231 0.903878,2.5806028 0.04074,0.299918 0.06142,0.606898 0.06142,0.918061 z"
       id="path30" />
    <g
       id="g38"
       style="fill:#1f1c24"
       transform="matrix(0.05650297,0,0,0.05650297,2.500554,3.1695866)">
	<path
   style="fill:#1f1c24"
   d="m 316.094,223.664 v -23.14 c 0,-6.035 -4.892,-10.928 -10.928,-10.928 v 0 c -6.035,0 -10.928,4.892 -10.928,10.928 v 23.14 c 0,6.035 4.892,10.928 10.928,10.928 v 0 c 6.036,-0.001 10.928,-4.893 10.928,-10.928 z"
   id="path34" />

	<path
   style="fill:#1f1c24"
   d="m 195.892,200.523 v 23.14 c 0,6.035 4.892,10.928 10.928,10.928 v 0 c 6.035,0 10.928,-4.892 10.928,-10.928 v -23.14 c 0,-6.035 -4.892,-10.928 -10.928,-10.928 v 0 c -6.036,0.001 -10.928,4.893 -10.928,10.928 z"
   id="path36" />

</g>
    <g
       id="g48"
       transform="matrix(0.05650297,0,0,0.05650297,2.500554,3.1695866)">
	<circle
   style="fill:#c4b7c8"
   cx="308.95499"
   cy="204.58099"
   r="7.1399999"
   id="circle40" />

	<circle
   style="fill:#7f7d89"
   cx="210.61"
   cy="204.58099"
   r="7.1399999"
   id="circle42" />

	<circle
   style="fill:#dedbe3"
   cx="300.97198"
   cy="221.539"
   r="4.105"
   id="circle44" />

	<circle
   style="fill:#dedbe3"
   cx="202.63699"
   cy="221.539"
   r="4.105"
   id="circle46" />

</g>
    <g
       id="g54"
       transform="matrix(0.05650297,0,0,0.05650297,2.500554,3.1695866)">
	<path
   style="fill:#282942"
   d="m 161.949,128.805 c 0,1.261 0.049,2.511 0.147,3.748 1.162,14.771 -4.176,29.397 -15.378,39.096 -3.501,3.032 -7.346,5.679 -11.467,7.876 v -34.471 c 0,-22.643 6.228,-43.813 17.084,-61.921 6.562,7.304 11.41,16.175 13.928,25.987 -2.768,5.986 -4.314,12.663 -4.314,19.685 z"
   id="path50" />

	<path
   style="fill:#282942"
   d="m 376.728,145.053 v 34.471 c -4.121,-2.197 -7.965,-4.844 -11.467,-7.876 -11.2,-9.699 -16.54,-24.325 -15.378,-39.096 0.097,-1.237 0.147,-2.487 0.147,-3.748 0,-7.022 -1.546,-13.699 -4.315,-19.686 2.518,-9.812 7.367,-18.683 13.928,-25.987 10.857,18.109 17.085,39.279 17.085,61.922 z"
   id="path52" />

</g>
    <path
       style="fill:#393a59;stroke-width:0.0565028"
       d="m 20.192425,17.728819 c 0,1.101695 -0.552034,2.074676 -1.395116,2.65677 -0.52073,0.360149 -1.151868,0.570906 -1.832617,0.570906 -0.680747,0 -1.311886,-0.210757 -1.832616,-0.570906 -0.84308,-0.58215 -1.395115,-1.555131 -1.395115,-2.65677 0.298731,0.149394 0.605768,0.276922 0.918059,0.382583 0.327098,0.110404 0.660068,0.197194 0.99598,0.259178 0.433941,0.08029 0.87376,0.120464 1.313636,0.120464 0.439819,0 0.879695,-0.04018 1.313637,-0.120464 0.335911,-0.06199 0.668939,-0.148772 0.995979,-0.259178 0.312404,-0.105716 0.619441,-0.233246 0.918173,-0.382583 z"
       id="path62" />
    <path
       style="fill:#ff2a2a;stroke-width:0.0565028"
       d="m 18.797309,20.385589 c -0.52073,0.360149 -1.151868,0.570906 -1.832617,0.570906 -0.680747,0 -1.311886,-0.210757 -1.832616,-0.570906 0.52073,-0.360151 1.151869,-0.570905 1.832616,-0.570905 0.680749,0 1.311887,0.210754 1.832617,0.570905 z"
       id="path64" />
    <path
       style="fill:#ffd5d5;stroke-width:0.0565028"
       d="m 20.768304,12.769667 h -7.607165 l 2.133834,1.600164 h 0.235335 c 0.41123,0 0.744597,0.333311 0.744597,0.744596 v 1.154638 c 0,0.379983 0.297262,0.705892 0.67713,0.712842 0.386989,0.0071 0.703011,-0.304552 0.703011,-0.689958 v -1.177522 c 0,-0.411229 0.333368,-0.744596 0.744596,-0.744596 h 0.234884 z"
       id="path66" />
    <g
       id="g72"
       transform="matrix(0.05650297,0,0,0.05650297,2.500554,3.1695866)">
	<path
   style="fill:#f0f0f0"
   d="m 296.866,264.443 c -0.627,4.807 -1.714,9.352 -2.905,13.333 -2.675,8.944 -5.925,15.078 -5.925,15.078 l -5.611,-15.193 -3.187,-8.631 c 5.946,-1.097 11.839,-2.633 17.628,-4.587 z"
   id="path68" />

	<path
   style="fill:#f0f0f0"
   d="m 232.741,269.03 -3.187,8.631 -5.611,15.193 c 0,0 -3.25,-6.134 -5.925,-15.078 -1.191,-3.981 -2.278,-8.526 -2.905,-13.333 5.789,1.954 11.682,3.49 17.628,4.587 z"
   id="path70" />

</g>
    <g
       id="g78"
       style="fill:#8d5fd3"
       transform="matrix(0.05650297,0,0,0.05650297,2.500554,3.1695866)">
	<path
   style="fill:#8d5fd3"
   d="m 169.618,177.742 10.334,-16.078 c 1.844,-2.869 5.666,-3.701 8.536,-1.857 l 42.28,27.176 c 5.771,3.709 2.098,12.656 -4.615,11.24 l -52.614,-11.098 c -4.231,-0.892 -6.259,-5.744 -3.921,-9.383 z"
   id="path74" />

	<path
   style="fill:#8d5fd3"
   d="m 342.361,177.742 -10.334,-16.078 c -1.844,-2.869 -5.666,-3.701 -8.536,-1.857 l -42.28,27.176 c -5.771,3.709 -2.098,12.656 4.614,11.24 l 52.614,-11.098 c 4.232,-0.892 6.26,-5.744 3.922,-9.383 z"
   id="path76" />

</g>
    <path
       style="fill:#cccccc;stroke-width:0.0565028"
       d="m 17.712566,22.137294 h -1.495633 c -0.152163,0 -0.275566,-0.123346 -0.275566,-0.275565 v 0 c 0,-0.152163 0.123347,-0.275564 0.275566,-0.275564 h 1.495633 c 0.152163,0 0.275566,0.123345 0.275566,0.275564 v 0 c -5.7e-5,0.152275 -0.123403,0.275565 -0.275566,0.275565 z"
       id="path80" />
    <path
       style="fill:#5d536c;stroke-width:0.130375"
       d="m 17.59856,24.577891 -0.665226,0.472559 c -0.470997,-0.339354 -0.09213,-0.06508 -0.595459,-0.45132 -0.988261,-0.404065 -2.075773,-1.53263 -1.94127,-1.549851 l 1.431757,0.296413 2.336962,0.02647 1.459979,-0.322882 c 0.304325,-0.01231 -0.793133,1.019136 -0.793133,1.019136 -0.588362,0.283215 -0.628184,0.297336 -1.23361,0.509475 z"
       id="path80-3" />
    <path
       style="fill:#5d536c;stroke-width:0.130375"
       d="m 10.690795,15.687198 c 3.210137,1.069724 4.780242,0.902271 6.341156,1.76165 1.426454,-0.862277 3.384205,-0.976431 6.22292,-1.346986 -2.153445,0.711941 -0.744629,-7.62e-4 -4.478523,1.843647 -1.015256,0.501495 -2.834981,0.309463 -3.623253,0 -2.362666,-0.927549 -1.846667,-0.803054 -4.4623,-2.258311 z"
       id="path80-3-6" />
    <g
       id="g86"
       transform="matrix(0.05650297,0,0,0.05650297,2.500554,3.1695866)">
	<path
   style="fill:#282942"
   d="M 359.643,83.132 C 338.578,47.898 300.042,24.315 255.989,24.315 c -44.042,0 -82.578,23.583 -103.654,58.817 -8.213,13.699 -13.782,29.153 -15.997,45.672 h 25.61 c 0,-25.966 21.055,-47.02 47.02,-47.02 0.631,0 1.26,0.013 1.885,0.038 22.046,0.87 39.219,19.546 39.219,41.61 v 6.424 c 0,3.267 2.649,5.916 5.916,5.916 v 0 c 3.267,0 5.916,-2.649 5.916,-5.916 v -6.424 c 0,-22.064 17.173,-40.74 39.219,-41.61 0.625,-0.025 1.254,-0.038 1.885,-0.038 25.966,0 47.02,21.055 47.02,47.02 h 25.61 c -2.212,-16.519 -7.782,-31.973 -15.995,-45.672 z"
   id="path82" />

	<path
   style="fill:#282942"
   d="m 255.99,448.637 c 0,0 -177.292,-128.708 -170.921,-140.293 9.517,-17.313 23.649,-29.124 37.607,-37.138 -14.271,15.792 -27.977,39.815 -6.892,60.89 3.406,3.406 7.154,5.713 11.146,7.101 13.939,4.847 26.906,12.126 37.591,22.305 z"
   id="path84" />

</g>
    <g
       id="g94"
       style="fill:#7f2aff"
       transform="matrix(0.05650297,0,0,0.05650297,2.500554,3.1695866)">
	<path
   style="fill:#7f2aff"
   d="m 298.436,441.095 -39.554,14.658 c -1.863,0.691 -3.912,0.691 -5.775,0 l -39.554,-14.658 c -5.427,-2.011 -11.197,2.004 -11.197,7.792 v 24.39 c 0,5.788 5.77,9.803 11.197,7.792 l 39.554,-14.658 c 1.863,-0.691 3.912,-0.691 5.775,0 l 39.554,14.658 c 5.427,2.011 11.197,-2.004 11.197,-7.792 v -24.39 c 0,-5.788 -5.769,-9.803 -11.197,-7.792 z"
   id="path88" />

	<path
   style="fill:#ff0000"
   d="m 293.961,277.776 c -2.675,8.944 -5.925,15.078 -5.925,15.078 l -5.611,-15.193 c 1.745,-0.648 3.636,-1.003 5.611,-1.003 2.09,0 4.086,0.397 5.925,1.118 z"
   id="path90" />

	<path
   style="fill:#ff0000"
   d="m 229.554,277.661 -5.611,15.193 c 0,0 -3.25,-6.134 -5.925,-15.078 1.839,-0.721 3.835,-1.118 5.925,-1.118 1.974,0 3.866,0.355 5.611,1.003 z"
   id="path92" />

</g>
  </g>
</svg>
